<?xml version="1.0" encoding="utf-8"?>
<!-- Generator: Adobe Illustrator 18.1.1, SVG Export Plug-In . SVG Version: 6.00 Build 0)  -->
<svg version="1.1" id="Layer_1" xmlns="http://www.w3.org/2000/svg" xmlns:xlink="http://www.w3.org/1999/xlink" x="0px" y="0px"
	 viewBox="0 0 848.7 792" enable-background="new 0 0 848.7 792" xml:space="preserve">
<g>
	<polygon fill-rule="evenodd" clip-rule="evenodd" fill="#FFFFFF" points="29.7,667.8 11,620.9 24.4,620.9 35.5,652 47.4,620.9 
		56.5,620.9 68.3,652 79.2,620.9 91.1,620.9 72.6,667.8 63.6,667.8 51.3,636.1 38.8,667.8 	"/>
	<polygon fill-rule="evenodd" clip-rule="evenodd" fill="#FFFFFF" points="104,667.8 104,620.9 154.7,620.9 154.7,630.8 
		117.3,630.8 117.3,638.6 139.1,638.6 139.1,648.3 117.3,648.3 117.3,657.3 155.3,657.3 155.3,667.8 	"/>
	<path fill-rule="evenodd" clip-rule="evenodd" fill="#FFFFFF" d="M207.3,648.2h-23.6v9.4h23.6c1.8,0,3-0.2,3.5-0.6
		c0.5-0.4,0.8-1.2,0.8-2.4v-3.4c0-1.1-0.3-1.9-0.8-2.3C210.3,648.4,209.2,648.2,207.3,648.2z M207.3,630.3h-23.6v8.4h23.6
		c1.7,0,2.7-0.2,3.2-0.5c0.5-0.3,0.7-0.9,0.7-1.7v-4.2c0-0.8-0.2-1.3-0.7-1.6C210.1,630.4,209.1,630.3,207.3,630.3z M170.6,667.8
		v-46.9h41.8c4.1,0,7,0.8,8.9,2.3c1.9,1.6,2.8,4,2.8,7.4v5.3c0,2.3-0.8,4.2-2.2,5.7s-3.3,2.1-5.4,1.9c2.2-0.2,4.1,0.6,5.6,2.3
		c1.6,1.7,2.4,3.8,2.4,6.3v5.7c0,3.3-1.3,5.8-3.9,7.5c-2.6,1.6-6.3,2.5-11.2,2.5H170.6z"/>
	<path fill-rule="evenodd" clip-rule="evenodd" fill="#FFFFFF" d="M301.5,647.7H320l-9.4-16.6L301.5,647.7z M277.9,667.8l27.2-46.9
		H317l27.7,46.9h-14.1l-5.7-9.8h-28.6l-5.7,9.8H277.9z"/>
	<path fill-rule="evenodd" clip-rule="evenodd" fill="#FFFFFF" d="M397.2,630.9h-28.9v7.5h28.3c4.9,0,8.3,0.8,10.2,2.5
		c1.8,1.7,2.7,4.7,2.7,9v6.2c0,4.4-0.9,7.5-2.8,9.2c-1.9,1.7-5.2,2.5-10.1,2.5h-29.3c-5,0-8.4-0.8-10.3-2.5
		c-1.9-1.7-2.8-4.8-2.8-9.2v-2l12-2.1v5.4h31.2v-8.2h-28.3c-4.9,0-8.3-0.9-10.2-2.5c-1.9-1.7-2.8-4.7-2.8-9.1v-5
		c0-4.3,0.9-7.3,2.8-9c1.8-1.7,5.2-2.5,10.2-2.5h26.8c4.8,0,8.2,0.8,10.1,2.4c1.9,1.6,2.9,4.4,2.9,8.3v2l-11.8,2.2V630.9z"/>
	<path fill-rule="evenodd" clip-rule="evenodd" fill="#FFFFFF" d="M467.8,631.2h-27.6v25.9h27.6v-9.6l13.3,2.5v6
		c0,4.4-0.9,7.5-2.8,9.2c-1.9,1.7-5.2,2.6-10.2,2.6h-28.3c-4.9,0-8.2-0.8-10.1-2.5c-1.9-1.7-2.8-4.8-2.8-9.2v-23.6
		c0-4.3,0.9-7.3,2.8-9c1.8-1.7,5.2-2.5,10.1-2.5h28.3c5,0,8.4,0.8,10.2,2.5c1.8,1.7,2.8,4.7,2.8,9v5.3l-13.3,1.7V631.2z"/>
	<polygon fill-rule="evenodd" clip-rule="evenodd" fill="#FFFFFF" points="498.8,667.8 498.8,620.9 549.5,620.9 549.5,630.8 
		512.1,630.8 512.1,638.6 533.9,638.6 533.9,648.3 512.1,648.3 512.1,657.3 550,657.3 550,667.8 	"/>
	<polygon fill-rule="evenodd" clip-rule="evenodd" fill="#FFFFFF" points="565.4,667.8 565.4,620.9 574.5,620.9 611.3,650.5 
		611.3,620.9 623.5,620.9 623.5,667.8 614.4,667.8 577.6,637.5 577.6,667.8 	"/>
	<path fill-rule="evenodd" clip-rule="evenodd" fill="#FFFFFF" d="M643.2,667.8v-46.9h31.5c9,0,16,2,20.9,6c4.9,4,7.4,9.8,7.4,17.2
		c0,7.9-2.6,13.8-7.8,17.7c-5.2,4-12.9,5.9-23.2,5.9H643.2z M656.5,657.3h13.1c7.5,0,12.7-1,15.5-3.1c2.9-2.1,4.3-5.6,4.3-10.6
		c0-4.3-1.2-7.5-3.5-9.5c-2.3-2.1-6-3.1-11.1-3.1h-18.3V657.3z"/>
	<polygon fill-rule="evenodd" clip-rule="evenodd" fill="#FFFFFF" points="718.9,667.8 718.9,620.9 769.6,620.9 769.6,630.8 
		732.2,630.8 732.2,638.6 754,638.6 754,648.3 732.2,648.3 732.2,657.3 770.1,657.3 770.1,667.8 	"/>
	<path fill-rule="evenodd" clip-rule="evenodd" fill="#FFFFFF" d="M785.5,667.8v-46.9h41.9c4,0,6.9,0.8,8.8,2.3
		c1.9,1.5,2.8,4,2.8,7.3v10.6c0,3.4-1,5.8-2.8,7.3c-1.9,1.5-4.8,2.3-8.8,2.3h-5.1l21.5,17h-17.3l-18.9-17h-8.9v17H785.5z
		 M822.7,630.6h-24.1v10.5h24.1c1.6,0,2.7-0.2,3.2-0.6c0.5-0.4,0.7-1.1,0.7-2.1v-5.2c0-1-0.2-1.6-0.7-2
		C825.4,630.8,824.3,630.6,822.7,630.6z"/>
</g>
<path fill-rule="evenodd" clip-rule="evenodd" fill="#FFFFFF" d="M848.7,580.8H480.1l49-111.6h146.3l-85.3-179.3
	c-1.2-2.2-2.6-3.3-4.2-3.3c-2.3,0-3.7,0.7-4.2,2L446.5,581.8H321.7l193.4-415.3c12.6-28.7,39.5-43,72.8-43c32.9,0,56.7,14.3,69.2,43
	L848.7,580.8z"/>
<path fill-rule="evenodd" clip-rule="evenodd" fill="#FFFFFF" d="M479,210.4l-154.6,337c-10.8,23.6-28.9,35.4-54.4,35.4H155.3
	c-19.4,0-30.2-6.4-32.4-19.3c-10.7,12.9-26.1,19.3-46.3,19.3H32.5c-21.7,0-32.5-7.7-32.5-23.1c0-3.7,0.7-7.7,2.2-12l39.1-78.3h88.2
	l-36,69.3l29.8-0.1L214,342.4h86.7L212,537.7l30.4-0.1L392,210.4H479z"/>
</svg>
